<svg width="85" height="20" viewBox="0 0 85 20" fill="none" xmlns="http://www.w3.org/2000/svg">
<path d="M74.9062 0C69.5025 0 65.1113 4.47745 65.1113 10C65.1113 15.5225 69.4919 20 74.9062 20C80.3207 20 84.7012 15.5225 84.7012 10C84.7012 4.47745 80.3207 0 74.9062 0ZM74.9062 16.5566C71.3677 16.5566 68.5007 13.6194 68.5007 10C68.5007 6.38064 71.3677 3.45435 74.9062 3.45435C78.4448 3.45435 81.3119 6.39164 81.3119 10C81.3119 13.6084 78.4448 16.5566 74.9062 16.5566Z" fill="black"/>
<path d="M62.2522 4.02899V0.805664H44.293V19.1995H62.2522V15.9871H47.5118V11.6197H59.0227V8.39642H47.5118V4.02899H62.2522Z" fill="black"/>
<path d="M31.2311 0.805664H22.5234V19.1995H31.0606C36.5815 19.1335 40.3973 15.1401 40.3973 9.98057C40.3973 4.82106 36.6668 0.948679 31.2311 0.805664ZM31.0713 16.0311H25.7208V3.97397H31.1245C34.6311 4.06199 36.912 6.59224 36.912 10.0246C36.912 13.4569 34.6098 15.9761 31.0713 16.0311Z" fill="black"/>
<path d="M17.8206 4.03999V0.805664H0V4.03999H7.30089V15.9651H0V19.1995H17.8206V15.9651H10.509V4.03999H17.8206Z" fill="black"/>
</svg>
